<svg xmlns="http://www.w3.org/2000/svg" viewBox="0 0 800 350">
  <defs>
    <linearGradient id="bgGrad" x1="0%" y1="0%" x2="100%" y2="100%">
      <stop offset="0%" style="stop-color:#1a1a2e"/>
      <stop offset="100%" style="stop-color:#16213e"/>
    </linearGradient>
  </defs>
  <rect width="800" height="350" fill="url(#bgGrad)" rx="12"/>
  <text x="400" y="35" text-anchor="middle" fill="#9b59b6" font-family="Arial, sans-serif" font-size="22" font-weight="bold">Feature-Based Distillation</text>
  
  <rect x="40" y="70" width="350" height="130" rx="10" fill="#2c3e50" stroke="#e74c3c" stroke-width="2"/>
  <text x="215" y="100" text-anchor="middle" fill="#e74c3c" font-family="Arial, sans-serif" font-size="14" font-weight="bold">🎓 Teacher Features</text>
  <rect x="70" y="115" width="50" height="70" rx="4" fill="#e74c3c" opacity="0.7"/>
  <rect x="130" y="115" width="50" height="70" rx="4" fill="#e74c3c" opacity="0.7"/>
  <rect x="190" y="115" width="50" height="70" rx="4" fill="#e74c3c" opacity="0.7"/>
  <rect x="250" y="115" width="50" height="70" rx="4" fill="#e74c3c" opacity="0.7"/>
  <rect x="310" y="115" width="50" height="70" rx="4" fill="#e74c3c" opacity="0.7"/>
  <text x="215" y="205" text-anchor="middle" fill="#ecf0f1" font-family="Arial, sans-serif" font-size="10">Intermediate layer activations</text>
  
  <rect x="410" y="70" width="350" height="130" rx="10" fill="#2c3e50" stroke="#27ae60" stroke-width="2"/>
  <text x="585" y="100" text-anchor="middle" fill="#27ae60" font-family="Arial, sans-serif" font-size="14" font-weight="bold">📚 Student Features</text>
  <rect x="440" y="115" width="50" height="70" rx="4" fill="#27ae60" opacity="0.7"/>
  <rect x="500" y="115" width="50" height="70" rx="4" fill="#27ae60" opacity="0.7"/>
  <rect x="560" y="115" width="50" height="70" rx="4" fill="#27ae60" opacity="0.7"/>
  <rect x="620" y="115" width="50" height="70" rx="4" fill="#27ae60" opacity="0.7"/>
  <rect x="680" y="115" width="50" height="70" rx="4" fill="#27ae60" opacity="0.7"/>
  <text x="585" y="205" text-anchor="middle" fill="#ecf0f1" font-family="Arial, sans-serif" font-size="10">Match teacher representations</text>
  
  <rect x="40" y="220" width="720" height="110" rx="10" fill="#2c3e50" stroke="#f39c12" stroke-width="2"/>
  <text x="400" y="255" text-anchor="middle" fill="#f39c12" font-family="Arial, sans-serif" font-size="16" font-weight="bold">Feature Matching Loss</text>
  <text x="400" y="285" text-anchor="middle" fill="#ecf0f1" font-family="monospace" font-size="12">L = Σ ||φ(F_S^l) - F_T^l||²</text>
  <text x="400" y="315" text-anchor="middle" fill="#95a5a6" font-family="Arial, sans-serif" font-size="11">φ = projection to match dimensions | Richer supervision than response-only</text>
</svg>

